<svg width="22" height="24" viewBox="0 0 22 24" fill="none" xmlns="http://www.w3.org/2000/svg">
<path fill-rule="evenodd" clip-rule="evenodd" d="M13.043 2.407C13.121 3.837 12.964 7.448 12.964 7.448C12.964 7.448 22.078 13.618 22 14.596C21.931 15.2533 21.8258 15.9063 21.685 16.552C21.685 16.552 12.728 12.038 12.807 13.166C12.885 14.295 12.65 19.26 12.65 19.26C12.65 19.26 16.264 22.044 16.185 22.345C16.185 22.645 16.028 24 16.028 24C16.028 24 11.943 22.42 11 22.42L10.921 22.42C9.978 22.42 5.893 24 5.893 24C5.893 24 5.736 22.721 5.736 22.345C5.736 22.044 9.271 19.185 9.271 19.185C9.271 19.185 9.035 14.219 9.114 13.091C9.193 11.963 0.236 16.476 0.236 16.476C0.236 16.476 0.0789996 15.574 -4.11062e-07 14.596C0.0789995 13.618 9.193 7.373 9.193 7.373C9.193 7.373 9.114 3.762 9.114 2.333C9.193 0.903 11.078 -4.84235e-07 11.078 -4.84235e-07C11.236 0.0749995 13.043 0.977999 13.043 2.407Z" fill="url(#paint0_linear_1_4)"/>
<defs>
<linearGradient id="paint0_linear_1_4" x1="11" y1="-2.50108e-08" x2="11" y2="24" gradientUnits="userSpaceOnUse">
<stop stop-color="#FFF700"/>
<stop offset="1" stop-color="#FFAE00"/>
</linearGradient>
</defs>
</svg>
